<?xml version="1.0" encoding="UTF-8" standalone="no"?>
<!-- Created with Inkscape (http://www.inkscape.org/) -->

<svg
   width="338.00006"
   height="150.687"
   aria-hidden="true"
   viewBox="0 0 20.029633 8.9295998"
   version="1.1"
   data-view-component="true"
   id="svg5"
   inkscape:export-filename="Rubik's cube.png"
   inkscape:export-xdpi="96"
   inkscape:export-ydpi="96"
   inkscape:version="1.2.1 (9c6d41e410, 2022-07-14)"
   sodipodi:docname="banner.svg"
   xml:space="preserve"
   xmlns:inkscape="http://www.inkscape.org/namespaces/inkscape"
   xmlns:sodipodi="http://sodipodi.sourceforge.net/DTD/sodipodi-0.dtd"
   xmlns="http://www.w3.org/2000/svg"
   xmlns:svg="http://www.w3.org/2000/svg"><sodipodi:namedview
     id="namedview7"
     pagecolor="#505050"
     bordercolor="#00ffff"
     borderopacity="1"
     inkscape:pageshadow="0"
     inkscape:pageopacity="0"
     inkscape:pagecheckerboard="1"
     inkscape:document-units="mm"
     showgrid="false"
     inkscape:zoom="0.17623167"
     inkscape:cx="2264.0653"
     inkscape:cy="1083.8007"
     inkscape:window-width="1366"
     inkscape:window-height="745"
     inkscape:window-x="-8"
     inkscape:window-y="-8"
     inkscape:window-maximized="1"
     inkscape:current-layer="svg5"
     inkscape:showpageshadow="true"
     inkscape:deskcolor="#002121"
     showguides="false" /><defs
     id="defs2" /><path
     id="path2601"
     style="fill:#000021;fill-opacity:1;stroke:none;stroke-width:11.1986;stroke-linecap:square;stroke-miterlimit:5.5;stop-color:#000000"
     d="M -53.037037,-5.5500148 H 20.148144 V 14.479615 h -73.185181 z" /><g
     id="g985"
     transform="matrix(1.1574272,0,0,1.1574272,-43.632413,-13.982001)"
     style="stroke-width:0.245562"><g
       id="g989"
       transform="matrix(0.39034925,0,0,0.39034925,28.257561,9.7164695)"
       style="stroke-width:0.245562"><path
         id="path25189"
         style="fill:#b3b3b3;fill-opacity:1;stroke-width:2.74995;stroke-linecap:square;stroke-miterlimit:5.5;stop-color:#000000"
         d="m 24.183972,6.0555294 0.821065,0.681944 h 12.041089 l -12.862038,12.8620376 8.012848,6.220487 v -3.310417 h 7.619676 1.199653 11.706019 7.781598 v 3.310417 L 68.516846,19.599511 55.654923,6.7374734 h 12.040973 l 0.82095,-0.681944 H 67.695896 54.012909 L 66.874832,18.917567 H 54.833858 54.012909 46.691497 V 6.0555294 H 46.009552 V 18.917567 H 38.688024 37.867075 31.846589 29.628302 25.825986 L 38.688024,6.0555294 H 25.005037 Z m 29.865395,4.3209486 -3.222222,1.860417 -0.340972,0.196875 -0.681945,0.39375 0.681945,0.39375 0.340972,0.196759 3.222222,1.860417 0.340973,-0.590509 -3.222223,-1.860417 3.222338,-1.860417 z m -13.445718,0.157986 -0.39375,0.681829 -0.196875,0.340972 -1.860417,3.222223 0.590625,0.340972 1.860417,-3.222222 1.860417,3.222338 0.590509,-0.341088 -1.860301,-3.222223 -0.196875,-0.340972 z m -7.094676,8.7397 h 2.878819 v 0.959607 H 34.46858 v 0.120023 h 1.919212 v 1.79919 h -2.878819 v -0.495255 -0.464352 h 1.919213 v -0.120023 h -1.919213 z m 3.393171,0 h 2.87882 v 2.87882 h -2.87882 z m 3.393172,0 h 2.878819 v 2.87882 h -0.959606 v -1.919213 h -0.120023 v 1.919213 h -0.719561 v -1.919213 h -0.120023 v 1.919213 h -0.959606 z m 3.393171,0 h 2.87882 v 0.959607 h -1.919213 v 0.120023 h 1.919213 v 0.71956 h -1.919213 v 0.120023 h 1.919213 v 0.959607 h -2.87882 z m 3.393172,0 h 0.959606 0.959607 0.959606 v 1.379398 h -0.959606 v 0.120023 h 0.959606 v 1.379399 h -0.959606 -0.959607 -0.959606 z m 3.393171,0 h 2.87882 v 2.87882 h -2.87882 z m 3.393172,0 h 2.369676 l 0.509144,0.509144 v 1.860648 l -0.509144,0.509028 h -2.369676 z m 3.393172,0 h 0.959606 v 0.959607 h 0.959607 v -0.959607 h 0.959606 v 0.959607 0.959606 h -0.959606 v 0.959607 H 58.22078 v -0.959607 h -0.959606 v -0.479745 z m -9.219909,0.518171 v 0.700579 h 0.959607 v -0.700579 z m -14.726736,0.416088 c -0.15489,0.182476 -0.400409,0.481127 -0.702778,0.699537 -0.14024,0.1013 -0.279235,0.175494 -0.414815,0.220834 -0.0899,0.03007 -0.182542,0.04961 -0.276852,0.05891 -0.22184,0.0218 -0.43108,-0.01505 -0.63044,-0.07894 -0.18915,-0.06061 -0.372572,-0.147047 -0.534722,-0.215047 -0.16781,-0.07038 -0.333416,-0.130692 -0.500926,-0.170602 -0.17059,-0.04064 -0.331537,-0.05746 -0.500347,-0.05266 -0.0728,0.002 -0.146547,0.0081 -0.222917,0.01771 -0.11601,0.01466 -0.246625,0.03702 -0.401505,0.08391 -0.343969,0.104135 -0.670999,0.293186 -0.883449,0.446643 0.1673,-0.186061 0.431374,-0.488064 0.752894,-0.710648 0.14859,-0.102867 0.294664,-0.178318 0.435764,-0.224768 0.0936,-0.03084 0.189718,-0.05134 0.287268,-0.06146 0.22941,-0.02381 0.445246,0.011 0.650116,0.07384 0.19531,0.05991 0.380177,0.145486 0.544097,0.214236 0.16888,0.07083 0.332898,0.131911 0.496528,0.172801 0.16653,0.04162 0.319968,0.05925 0.478588,0.05625 0.0684,-0.0013 0.137518,-0.0063 0.209028,-0.01493 0.10865,-0.01306 0.231442,-0.0335 0.377662,-0.07836 0.32521,-0.09978 0.635466,-0.285696 0.836806,-0.437269 z m 4.547222,0.02535 v 0.959606 h 0.959606 v -0.959606 z m 13.572686,0 v 0.959606 h 0.959606 v -0.959606 z m 3.393171,0 v 0.959606 h 0.789931 l 0.169676,-0.169678 v -0.620255 l -0.169676,-0.169675 z m -6.786343,0.700578 v 0.700463 h 0.959607 v -0.700463 z m 12.759261,0.266551 0.47581,0.476042 0.476157,-0.476042 0.476042,0.476042 -0.476042,0.476042 -0.476157,-0.476042 -0.475926,0.475926 -0.476158,-0.475926 z m 1.904166,0 0.476042,0.476042 -0.476042,0.476042 -0.476041,-0.476158 z" /><path
         id="path2075"
         style="fill:#ff8a03;fill-opacity:1;stroke-width:2.74995;stroke-linecap:square;stroke-miterlimit:5.5;stop-color:#000000"
         d="m 42.012098,22.866178 v 0.907986 0.340973 0.340972 0.681944 0.681945 h 0.681945 0.681944 0.681945 0.681944 0.681945 0.681944 0.681945 v -0.681945 -0.226041 h 0.493287 0.681944 0.681945 0.681944 v -0.681945 -0.681944 -0.681945 h -0.681944 v 0.681945 0.681944 H 47.960941 47.278997 46.78571 v -1.363889 h -0.188658 -0.493287 v 0.907986 0.681945 0.681944 h -0.681944 -0.681945 -0.681944 -0.681945 -0.681944 v -0.681944 -0.340972 -0.340973 -0.907986 z m 7.994677,0 v 0.681945 h 0.681944 v -0.681945 z m -5.948843,0.567014 v 0.681945 h 0.681944 v -0.681945 z m 5.948843,0.340972 v 0.681945 0.681944 h -0.497107 -0.373495 -0.308449 v 0.681945 h 0.308449 0.373495 0.497107 0.681944 v -0.681945 -0.681944 -0.681945 z m -2.995024,1.363889 v 0.681945 h 0.681945 v -0.681945 z m 0.907986,0 v 0.681945 h 0.681945 v -0.681945 z" /></g></g></svg>
