<?xml version="1.0" encoding="UTF-8" standalone="no"?>
<!-- Created with Inkscape (http://www.inkscape.org/) -->

<svg
   width="95.466476"
   height="33.582485"
   aria-hidden="true"
   viewBox="0 0 5.6572725 1.9900732"
   version="1.1"
   data-view-component="true"
   id="svg5"
   inkscape:export-filename="Rubik's cube.png"
   inkscape:export-xdpi="96"
   inkscape:export-ydpi="96"
   inkscape:version="1.2.1 (9c6d41e410, 2022-07-14)"
   sodipodi:docname="banner.svg"
   xml:space="preserve"
   xmlns:inkscape="http://www.inkscape.org/namespaces/inkscape"
   xmlns:sodipodi="http://sodipodi.sourceforge.net/DTD/sodipodi-0.dtd"
   xmlns="http://www.w3.org/2000/svg"
   xmlns:svg="http://www.w3.org/2000/svg"><sodipodi:namedview
     id="namedview7"
     pagecolor="#505050"
     bordercolor="#00ffff"
     borderopacity="1"
     inkscape:pageshadow="0"
     inkscape:pageopacity="0"
     inkscape:pagecheckerboard="1"
     inkscape:document-units="mm"
     showgrid="false"
     inkscape:zoom="0.17623167"
     inkscape:cx="2264.0653"
     inkscape:cy="1083.8007"
     inkscape:window-width="1366"
     inkscape:window-height="745"
     inkscape:window-x="-8"
     inkscape:window-y="-8"
     inkscape:window-maximized="1"
     inkscape:current-layer="svg5"
     inkscape:showpageshadow="true"
     inkscape:deskcolor="#002121"
     showguides="false" /><defs
     id="defs2" /><rect
     style="fill:#000021;fill-opacity:1;stroke-width:0.0019424"
     id="rect1398-4"
     width="5.8074079"
     height="5.8074079"
     x="-0.075066328"
     y="-2.3396294"
     inkscape:export-filename="logo11.png"
     inkscape:export-xdpi="3000"
     inkscape:export-ydpi="3000" /><g
     id="g4976"
     transform="translate(-69.761567,15.902297)"><path
       id="path648-4"
       style="fill:#b3b3b3;fill-opacity:1;stroke-width:4.27636;stroke-linecap:square;stroke-miterlimit:5.5;stop-color:#000000"
       d="m 70.933516,-15.902232 v 0.144297 c 0.05201,-0.02365 0.103624,-0.04414 0.154679,-0.06109 0.03487,-0.01139 0.07012,-0.02157 0.105696,-0.03048 v -0.05271 z m 0.260372,0.05271 v 0.29405 0.130187 0.05724 c 8.79e-4,-1.11e-4 0.0018,-1.58e-4 0.0027,-2.67e-4 0.08554,-0.01104 0.166479,-0.01721 0.247993,-0.02023 0.188487,-0.0051 0.368719,0.01409 0.559217,0.05936 0.1648,0.03902 0.32765,0.09665 0.49226,0.163466 v -0.129388 -0.260374 -0.114746 c -0.114897,-0.04852 -0.235802,-0.09666 -0.360742,-0.134712 -0.178703,-0.05503 -0.36477,-0.09046 -0.559749,-0.09078 -0.05459,-9.2e-5 -0.109836,0.0025 -0.165862,0.0083 -0.07261,0.0074 -0.144779,0.02013 -0.21578,0.03795 z m 1.302133,0.179304 c 0.08564,0.03618 0.167998,0.07265 0.246131,0.105293 0.0047,0.0019 0.0096,0.0039 0.01424,0.0058 v -0.343172 h -0.07203 -0.188357 z m 0.260375,0.111148 v 0.177707 h 0.188491 0.260372 0.05751 c -0.166952,-0.04381 -0.334392,-0.105661 -0.506368,-0.177708 z m 0.506369,0.177708 c 0.01127,0.0031 0.02256,0.0057 0.03381,0.0085 0.149111,0.0371 0.288758,0.05737 0.429564,0.06137 v -0.06987 -0.260507 -0.260374 h -0.260507 v 0.260374 0.260507 z m 0.463375,0.06987 v 0.190488 h -0.260506 -0.260375 -0.260372 -0.188491 v 0.06577 c 0.02849,0.01228 0.05718,0.02458 0.0864,0.03687 v -0.01624 h 0.260374 v 0.117408 c 0.01897,0.0065 0.03802,0.01294 0.0571,0.01903 0.0097,0.0032 0.01941,0.0061 0.02915,0.0091 v -0.145496 h 0.260506 v 0.207499 c 0.02854,0.0049 0.05733,0.0089 0.08626,0.01224 v -0.219774 h 0.117806 0.142566 0.189824 v -0.260505 -0.02409 c -0.05241,0.0046 -0.104178,0.0071 -0.155214,0.0077 -0.03521,9.73e-4 -0.07012,8.58e-4 -0.105027,-1.33e-4 z m 0.26024,-0.0077 c 0.02613,-0.0023 0.05247,-0.005 0.07894,-0.0083 0.05669,-0.007 0.116873,-0.01596 0.181568,-0.02849 v -0.199512 h -0.2605 z m 0.260505,-0.03675 v 0.06083 0.260506 0.131785 c 0.127863,-0.05112 0.257794,-0.125229 0.38923,-0.220173 0.335724,-0.2425 0.608748,-0.574083 0.781786,-0.778058 -0.224933,0.168848 -0.569468,0.374076 -0.931008,0.484938 -0.08691,0.02679 -0.166347,0.0459 -0.240008,0.06018 z m 1.171016,-0.545106 c 2.73e-4,-2.06e-4 5.25e-4,-4.61e-4 7.98e-4,-6.67e-4 l 1.34e-4,-5.32e-4 c -3.05e-4,3.6e-4 -6.27e-4,8.38e-4 -9.32e-4,0.0011 z m -1.171016,0.998231 c -0.02446,0.0098 -0.04891,0.01867 -0.07322,0.02675 -0.100636,0.0332 -0.204532,0.05535 -0.309892,0.06536 -0.112034,0.01082 -0.221096,0.0084 -0.327596,-0.0042 v 0.0406 h 0.117806 0.142566 0.189822 0.260507 z m -0.796959,0.07574 c -0.08857,-0.01488 -0.175341,-0.0362 -0.260507,-0.06203 v 0.114874 h 0.260507 z m -0.346766,-0.09012 c -0.08864,-0.03055 -0.175836,-0.06557 -0.260372,-0.101166 v 0.244133 h 0.260372 z m -0.346764,-0.137988 c -0.06677,-0.02877 -0.131657,-0.05713 -0.193551,-0.08293 -0.02232,-0.0094 -0.04456,-0.01853 -0.06682,-0.02756 v 0.131116 h -0.260372 -0.260505 -0.260374 -0.260373 -0.260508 v -0.260505 -0.07295 c -0.07972,0.01 -0.165738,0.02424 -0.260372,0.04592 v 0.02702 0.260506 0.260373 h 0.260372 0.260508 0.260373 0.260374 0.260505 0.260373 0.260374 v -0.260408 z m -1.82288,-0.266897 v -0.103165 -0.130187 -0.202468 c -0.108457,0.0493 -0.218974,0.112883 -0.331059,0.190488 -0.358957,0.248465 -0.654112,0.585528 -0.840888,0.793234 0.237194,-0.171276 0.602499,-0.382287 0.986518,-0.498517 0.06552,-0.01982 0.127093,-0.03602 0.185429,-0.0494 z m 3.052864,-0.580116 v 0.260507 h 0.260505 v -0.260507 z m -2.271612,0.216578 h 0.260375 v 0.260374 h -0.260375 z" /><path
       id="path588"
       style="fill:#ff8a03;fill-opacity:1;stroke-width:0.497398;stroke-linecap:square;stroke-miterlimit:5.5;stop-color:#000000"
       d="m 71.605655,-14.513805 0.03647,0.0303 h 0.534818 l -0.57128,0.571282 h 1.969085 l -0.571276,-0.571284 h 0.534811 l 0.03646,-0.03029 h -0.03646 -0.607744 l 0.571277,0.571281 H 72.60535 v -0.571281 h -0.03029 v 0.571281 h -0.896476 l 0.571281,-0.571281 H 71.64212 Z m 1.326503,0.19192 -0.143119,0.08263 -0.01515,0.0087 -0.03029,0.01748 0.03029,0.01748 0.01515,0.0087 0.143119,0.08263 0.01515,-0.02623 -0.143119,-0.08264 0.143123,-0.08263 z m -0.597206,0.007 -0.01748,0.03028 -0.0086,0.01515 -0.08264,0.143118 0.02623,0.01516 0.08264,-0.143118 0.08263,0.143124 0.02623,-0.01515 -0.08263,-0.143118 -0.0087,-0.01515 z"
       sodipodi:nodetypes="ccccccccccccccccccccccccccccccccccccccccc" /></g></svg>
