<?xml version="1.0" encoding="UTF-8" standalone="no"?>
<!-- Created with Inkscape (http://www.inkscape.org/) -->

<svg
   width="83.000061"
   height="38.898521"
   aria-hidden="true"
   viewBox="0 0 4.918522 2.3050976"
   version="1.1"
   data-view-component="true"
   id="svg5"
   inkscape:export-filename="Rubik's cube.png"
   inkscape:export-xdpi="96"
   inkscape:export-ydpi="96"
   inkscape:version="1.2.1 (9c6d41e410, 2022-07-14)"
   sodipodi:docname="banner.svg"
   xml:space="preserve"
   xmlns:inkscape="http://www.inkscape.org/namespaces/inkscape"
   xmlns:sodipodi="http://sodipodi.sourceforge.net/DTD/sodipodi-0.dtd"
   xmlns="http://www.w3.org/2000/svg"
   xmlns:svg="http://www.w3.org/2000/svg"><sodipodi:namedview
     id="namedview7"
     pagecolor="#505050"
     bordercolor="#00ffff"
     borderopacity="1"
     inkscape:pageshadow="0"
     inkscape:pageopacity="0"
     inkscape:pagecheckerboard="1"
     inkscape:document-units="mm"
     showgrid="false"
     inkscape:zoom="0.17623167"
     inkscape:cx="2264.0653"
     inkscape:cy="1083.8007"
     inkscape:window-width="1366"
     inkscape:window-height="745"
     inkscape:window-x="-8"
     inkscape:window-y="-8"
     inkscape:window-maximized="1"
     inkscape:current-layer="svg5"
     inkscape:showpageshadow="true"
     inkscape:deskcolor="#002121"
     showguides="false" /><defs
     id="defs2" /><rect
     style="fill:#000021;fill-opacity:1;stroke-width:0.0019424"
     id="rect981"
     width="5.8074079"
     height="5.8074079"
     x="-0.44448918"
     y="-1.6949483"
     inkscape:export-filename="logo2.png"
     inkscape:export-xdpi="3000"
     inkscape:export-ydpi="3000" /><g
     id="g3995"
     transform="translate(-62.843213,16.546978)"><path
       id="path25370"
       style="fill:#ff8a03;fill-opacity:1;stroke-width:1.24243;stroke-linecap:square;stroke-miterlimit:5.5;stop-color:#000000"
       d="m 67.24183,-16.546978 v 0.112384 h 0.07558 v -0.112384 z m 0.07558,0.112384 v 0.0757 h 0.353241 l 0.09109,-0.0757 h -0.09109 z m 0,0.0757 h -0.07558 v 0.112268 h 0.07558 z m -0.07558,0 v -0.0757 h -1.089236 l 1.426968,1.426967 h -1.33588 -0.09109 -0.812268 v -1.426967 h -0.07569 v 1.426967 h -0.812271 -0.09109 -0.66794 -0.246181 -0.421759 l 0.426504,-0.426621 -0.05324,-0.05324 -0.55544,0.555555 0.130671,0.101505 0.06539,-0.08414 0.08403,0.06528 -0.06528,0.08414 0.67419,0.523263 v -0.367245 h 0.978356 1.355903 0.80625 v 0.367245 l 0.674074,-0.523263 -0.06528,-0.08414 0.08414,-0.06528 0.06528,0.08414 0.130787,-0.101505 -1.426968,-1.427082 z m 0.389121,1.528471 -0.08414,0.06528 0.06528,0.08403 0.08414,-0.06528 z m -4.572917,0.06528 -0.08414,-0.06528 -0.06528,0.08403 0.08414,0.06528 z m 0.393865,-0.669098 0.05359,0.05347 0.426389,-0.426388 -0.05347,-0.05347 z m -0.60868,-1.000346 0.09109,0.0757 h 1.33588 l -0.445024,0.444906 0.05324,0.05324 0.573959,-0.573842 h -1.518056 z m 0.928125,0.466897 -0.426389,0.426505 0.05347,0.05347 0.426505,-0.426505 z m 2.385301,0.0125 -0.357523,0.206366 -0.03785,0.02187 -0.07569,0.04363 0.07569,0.04375 0.03785,0.02176 0.357523,0.206482 0.03773,-0.06551 -0.357408,-0.206482 0.357408,-0.206366 z m -1.491782,0.01748 -0.04363,0.07569 -0.02188,0.03785 -0.206481,0.357407 0.06563,0.03785 0.206366,-0.357407 0.206365,0.357407 0.06551,-0.03785 -0.206366,-0.357407 -0.02188,-0.03785 z m -0.787153,0.969676 h 0.319444 v 0.106481 h -0.212963 v 0.01331 h 0.212963 v 0.199537 H 63.87771 v -0.05486 -0.05151 h 0.212963 v -0.01343 H 63.87771 Z m 0.376504,0 h 0.106482 0.106366 0.106481 v 0.163889 0.02882 0.0287 0.09792 h -0.106481 v -0.09792 h -0.106366 v 0.09792 h -0.106482 z m 0.376389,0 h 0.319445 v 0.319329 h -0.106482 v -0.212848 h -0.01331 v 0.212848 h -0.07986 v -0.212848 h -0.01331 v 0.212848 h -0.106482 z m 0.376505,0 h 0.319329 v 0.106481 h -0.212848 v 0.01331 h 0.212848 v 0.07986 h -0.212848 v 0.01331 h 0.212848 v 0.106366 h -0.319329 z m 0.376505,0 h 0.106365 0.106482 0.106481 v 0.153009 H 65.59646 v 0.01331 h 0.106481 v 0.15301 H 65.59646 65.489978 65.383613 Z m 0.376388,0 h 0.319445 v 0.319329 h -0.319445 z m 0.376505,0 h 0.262847 l 0.05648,0.05648 v 0.206366 l -0.05648,0.05648 h -0.262847 z m 0.376389,0 h 0.106482 v 0.106481 h 0.106481 v -0.106481 h 0.106482 v 0.106481 0.106482 h -0.106482 v 0.106366 h -0.106481 v -0.106376 h -0.106482 v -0.05324 z m -2.152199,0.05752 v 0.07766 0.0287 h 0.106366 v -0.0287 -0.07766 z m 1.129282,0 v 0.07766 h 0.106482 v -0.07766 z m -1.633796,0.04607 c -0.01718,0.02024 -0.04446,0.05343 -0.07801,0.07766 -0.01556,0.01124 -0.03091,0.01951 -0.04595,0.02454 -0.01,0.0033 -0.02032,0.0055 -0.03079,0.0065 -0.02461,0.0024 -0.0478,-0.0017 -0.06991,-0.0087 -0.02099,-0.0067 -0.04138,-0.01629 -0.05938,-0.02384 -0.01862,-0.0078 -0.03696,-0.01455 -0.05555,-0.01898 -0.01893,-0.0045 -0.03683,-0.0064 -0.05556,-0.0059 -0.0081,2.22e-4 -0.01618,8.56e-4 -0.02465,0.002 -0.01287,0.0016 -0.02737,0.0042 -0.04456,0.0094 -0.03816,0.01155 -0.07446,0.03252 -0.09803,0.04954 0.01856,-0.02064 0.04789,-0.05413 0.08356,-0.07882 0.01648,-0.01141 0.03261,-0.01984 0.04826,-0.025 0.01038,-0.0034 0.02112,-0.0057 0.03195,-0.0068 0.02545,-0.0026 0.04938,0.0012 0.07211,0.0082 0.02167,0.0066 0.04212,0.01621 0.0603,0.02384 0.01874,0.0079 0.03693,0.01457 0.05509,0.0191 0.01848,0.0046 0.03552,0.0067 0.05313,0.0062 0.0076,-1.1e-4 0.01533,-7.01e-4 0.02326,-0.0017 0.01205,-0.0015 0.02568,-0.0037 0.0419,-0.0087 0.03608,-0.01107 0.07048,-0.03167 0.09282,-0.04849 z m 2.010301,0.0028 v 0.106481 h 0.106481 v -0.106481 z m 0.376505,0 v 0.106481 h 0.08761 l 0.01875,-0.01875 v -0.06887 l -0.01875,-0.01886 z m -0.75301,0.07778 v 0.07766 h 0.106482 v -0.07766 z m 1.415625,0.02951 0.05278,0.05289 0.05289,-0.05289 0.05278,0.05289 0.05278,-0.05289 0.05289,0.05289 -0.05289,0.05278 -0.05278,-0.05278 -0.05278,0.05278 -0.05289,-0.05278 -0.05278,0.05278 -0.05289,-0.05278 z" /><path
       id="path1938"
       style="fill:#b3b3b3;fill-opacity:1;stroke-width:1.24223;stroke-linecap:square;stroke-miterlimit:5.5;stop-color:#000000"
       d="m 64.821114,-14.56955 v 0.10072 0.03782 0.03782 0.07565 0.07565 h 0.07565 0.07565 0.07565 0.07565 0.07565 0.07565 0.07565 v -0.07565 -0.02508 h 0.05472 0.07565 0.07565 0.07565 v -0.07565 -0.07565 -0.07565 h -0.07565 v 0.07565 0.07565 h -0.07565 -0.07565 -0.05472 v -0.151293 h -0.02093 -0.05472 v 0.10072 0.07565 0.07565 h -0.07565 -0.07565 -0.07565 -0.07565 -0.07565 v -0.07565 -0.03782 -0.03782 -0.10072 z m 0.886828,0 v 0.07565 h 0.07565 v -0.07565 z m -0.659889,0.0629 v 0.07565 h 0.07565 v -0.07565 z m 0.659889,0.03782 v 0.07565 0.07565 h -0.05514 -0.04143 -0.03421 v 0.07565 h 0.03421 0.04143 0.05514 0.07565 v -0.07565 -0.07565 -0.07565 z m -0.33223,0.151292 v 0.07565 h 0.07565 v -0.07565 z m 0.10072,0 v 0.07565 h 0.07565 v -0.07565 z" /></g></svg>
